<?xml version="1.0" encoding="UTF-8"?>
<!DOCTYPE svg PUBLIC "-//W3C//DTD SVG 1.1//EN" "http://www.w3.org/Graphics/SVG/1.1/DTD/svg11.dtd">
<svg xmlns="http://www.w3.org/2000/svg" version="1.1" width="90px" height="90px"
  style="shape-rendering:geometricPrecision; text-rendering:geometricPrecision; image-rendering:optimizeQuality; fill-rule:evenodd; clip-rule:evenodd"
  xmlns:xlink="http://www.w3.org/1999/xlink">
  <g>
    <path style="opacity:1" fill="rgba(6,6,6,0)"
      d="M -0.5,-0.5 C 29.5,-0.5 59.5,-0.5 89.5,-0.5C 89.5,29.5 89.5,59.5 89.5,89.5C 59.5,89.5 29.5,89.5 -0.5,89.5C -0.5,59.5 -0.5,29.5 -0.5,-0.5 Z" />
  </g>
  <g>
    <path style="opacity:1" fill="#4f46e5"
      d="M 35.5,9.5 C 51.2261,7.29743 64.0595,12.2974 74,24.5C 75.6398,26.579 76.8064,28.9124 77.5,31.5C 76.635,32.5827 75.635,32.7494 74.5,32C 66.4867,17.4922 54.1534,11.1588 37.5,13C 32.6597,14.5942 27.993,16.4275 23.5,18.5C 23.33,17.1779 23.6634,16.0113 24.5,15C 28.0463,12.7174 31.7129,10.8841 35.5,9.5 Z" />
  </g>
  <g>
    <path style="opacity:1" fill="#4f46e5"
      d="M 38.5,16.5 C 50.316,14.9967 60.1493,18.6633 68,27.5C 70.3307,30.3109 69.8307,31.8109 66.5,32C 59.3339,22.0517 49.6672,18.385 37.5,21C 25.5147,25.3136 19.348,33.8136 19,46.5C 16.355,47.7084 15.1884,46.7084 15.5,43.5C 17.843,29.8332 25.5096,20.8332 38.5,16.5 Z" />
  </g>
  <g>
    <path style="opacity:1" fill="#4f46e5"
      d="M 41.5,29.5 C 58.6053,30.0896 64.4386,38.4229 59,54.5C 49.3534,65.3433 40.0201,65.01 31,53.5C 27.1854,42.1402 30.6854,34.1402 41.5,29.5 Z" />
  </g>
  <g>
    <path style="opacity:1" fill="#4f46e5"
      d="M 49.5,23.5 C 63.3004,27.8092 69.1337,37.1425 67,51.5C 65.9887,52.3366 64.8221,52.67 63.5,52.5C 66.358,39.8776 61.6913,31.5443 49.5,27.5C 48.3744,26.1916 48.3744,24.8583 49.5,23.5 Z" />
  </g>
  <g>
    <path style="opacity:1" fill="rgba(16,16,16,0)"
      d="M 41.5,33.5 C 54.5499,33.7048 59.3833,40.0381 56,52.5C 51.5092,57.2591 46.0092,58.7591 39.5,57C 31.0396,48.3194 31.7063,40.4861 41.5,33.5 Z" />
  </g>
  <g>
    <path style="opacity:1" fill="#4f46e5"
      d="M 43.5,36.5 C 51.5,35.8333 55.1667,39.5 54.5,47.5C 53.5,47.5 52.5,47.5 51.5,47.5C 51.8333,41.8333 49.1667,39.1667 43.5,39.5C 43.5,38.5 43.5,37.5 43.5,36.5 Z" />
  </g>
  <g>
    <path style="opacity:1" fill="#4f46e5"
      d="M 23.5,39.5 C 24.5,39.5 25.5,39.5 26.5,39.5C 24.72,51.6196 29.3867,59.9529 40.5,64.5C 41.3857,65.325 41.719,66.325 41.5,67.5C 31.7277,65.8993 25.5611,60.2327 23,50.5C 22.2446,46.7446 22.4113,43.0779 23.5,39.5 Z" />
  </g>
  <g>
    <path style="opacity:1" fill="#4f46e5"
      d="M 43.5,42.5 C 48.3276,42.3852 49.6609,44.5519 47.5,49C 42.5705,49.427 41.2372,47.2604 43.5,42.5 Z" />
  </g>
  <g>
    <path style="opacity:1" fill="#4f46e5"
      d="M 9.5,33.5 C 11.2517,33.4176 12.2517,34.2509 12.5,36C 8.77084,49.4696 11.9375,60.9696 22,70.5C 22.4828,71.448 22.6495,72.448 22.5,73.5C 21.448,73.6495 20.448,73.4828 19.5,73C 8.56473,61.7589 5.2314,48.5923 9.5,33.5 Z" />
  </g>
  <g>
    <path style="opacity:1" fill="#4f46e5"
      d="M 20.5,59.5 C 23.8595,61.3408 26.8595,63.8408 29.5,67C 34.2999,70.4014 39.6332,72.068 45.5,72C 46.7982,74.3949 45.9649,75.5616 43,75.5C 35.1158,74.5579 28.4491,71.2246 23,65.5C 21.4412,63.7834 20.6079,61.7834 20.5,59.5 Z" />
  </g>
  <g>
    <path style="opacity:1" fill="#4f46e5"
      d="M 74.5,59.5 C 75.675,59.281 76.675,59.6143 77.5,60.5C 70.4986,75.1539 58.832,82.4872 42.5,82.5C 42.33,81.1779 42.6634,80.0113 43.5,79C 57.7225,78.5615 68.0558,72.0615 74.5,59.5 Z" />
  </g>
</svg>