<?xml version="1.0" standalone="no"?><!DOCTYPE svg PUBLIC "-//W3C//DTD SVG 1.1//EN" "http://www.w3.org/Graphics/SVG/1.1/DTD/svg11.dtd"><svg t="1726020642432" class="icon" viewBox="0 0 1024 1024" version="1.1" xmlns="http://www.w3.org/2000/svg" p-id="1647" xmlns:xlink="http://www.w3.org/1999/xlink" width="32" height="32"><path d="M1023.435782 350.298852l-0.341213-1.961976a44.016503 44.016503 0 0 0-0.76773-3.668041l-0.725078-2.132583a53.954337 53.954337 0 0 0-2.132582-5.331456 22.733329 22.733329 0 0 0-1.492808-2.900312c-0.341213-0.725078-0.810381-1.407504-1.236898-2.04728a30.837143 30.837143 0 0 0-3.326829-4.606378 39.239518 39.239518 0 0 0-2.217885-2.388492l-1.706066-1.706066a72.934321 72.934321 0 0 0-2.559099-2.132583l-1.961976-1.492807c-0.25591-0.127955-0.469168-0.383865-0.725078-0.51182L536.396594 7.507543a44.016503 44.016503 0 0 0-48.793488 0L19.799812 319.419058c-0.25591 0.127955-0.51182 0.383865-0.767729 0.554471a39.495428 39.495428 0 0 0-4.478424 3.625391c-0.597123 0.469168-1.151595 1.108943-1.706066 1.663414a30.666536 30.666536 0 0 0-3.753345 4.265165 39.580731 39.580731 0 0 0-3.070919 4.776985 35.486173 35.486173 0 0 0-1.535459 2.900312l-0.938336 2.132582a38.130575 38.130575 0 0 0-1.151595 3.198874l-0.682426 2.132583a44.016503 44.016503 0 0 0-0.76773 3.710693c-0.127955 0.639775-0.298562 1.236898-0.341213 1.919324a41.969223 41.969223 0 0 0-0.426517 5.715321v311.868863c0 1.919324 0.170607 3.838648 0.426517 5.757973 0.042652 0.597123 0.213258 1.279549 0.341213 1.876672 0.213258 1.279549 0.426516 2.473796 0.76773 3.710694l0.682426 2.132582c0.341213 1.066291 0.682426 2.132582 1.151595 3.241526l0.938336 2.132582c0.469168 0.980988 0.980988 1.919324 1.535459 2.900313 0.426516 0.682426 0.810381 1.364853 1.27955 2.004627a38.898305 38.898305 0 0 0 7.25078 8.700937 39.495428 39.495428 0 0 0 4.478424 3.582738c0.298562 0.170607 0.51182 0.426516 0.767729 0.554472l467.803294 311.911514a43.931199 43.931199 0 0 0 48.793488 0l467.845946-311.911514c0.25591-0.127955 0.469168-0.383865 0.725078-0.51182l2.004627-1.53546a72.934321 72.934321 0 0 0 2.473796-2.132582c0.597123-0.51182 1.151595-1.108943 1.706066-1.706066a38.642395 38.642395 0 0 0 5.587366-6.952219l1.27955-2.004627a31.988737 31.988737 0 0 0 1.492807-2.942964l0.980988-2.132583c0.426516-1.066291 0.76773-2.132582 1.108943-3.198874l0.725078-2.132582 0.76773-3.710694 0.341213-1.876672a43.504683 43.504683 0 0 0 0.383865-5.757973V356.014173a41.969223 41.969223 0 0 0-0.383865-5.715321z m-467.462081-223.963812l344.62533 229.721785-153.887152 102.961082-190.738178-127.528432v-205.154435z m-87.947702 0v205.154435l-190.695526 127.528432-153.972455-102.961082 344.62533-229.721785z m-379.855592 311.996817L198.211663 511.948605l-110.041256 73.616747v-147.233495z m379.855592 459.230313l-344.62533-229.721785 153.929804-102.961083 190.652875 127.528433v205.154435zM511.99985 616.01863L356.449284 511.948605 511.99985 407.878579 667.593068 511.948605 511.99985 616.01863z m43.973851 281.54354v-205.154435l190.738178-127.528433 153.929803 102.961083-344.625329 229.721785z m379.855592-311.996818L825.830689 511.948605l110.041256-73.616748v147.233495z" fill="#fff" p-id="1648"></path></svg>